<?xml version="1.0" encoding="UTF-8" standalone="no"?> <svg xmlns="http://www.w3.org/2000/svg" xmlns:xlink="http://www.w3.org/1999/xlink" xmlns:serif="http://www.serif.com/" width="100%" height="100%" viewBox="0 0 1200 240" version="1.1" xml:space="preserve" style="fill-rule:evenodd;clip-rule:evenodd;stroke-linejoin:round;stroke-miterlimit:2;"> <g fill="#f5f2ea" transform="matrix(2.45132,0,0,2.45132,-39.9924,99.9604)"> <g transform="matrix(50,0,0,50,44.2379,24.9)"> <path d="M0.422,-0.76L0.029,-0.76C0.029,-0.76 0.025,-0.596 0.029,-0.596C0.082,-0.596 0.097,-0.575 0.097,-0.502L0.097,-0.258C0.097,-0.183 0.082,-0.162 0.029,-0.162C0.025,-0.162 0.029,-0 0.029,-0L0.422,-0C0.718,-0 0.797,-0.163 0.797,-0.38C0.797,-0.596 0.718,-0.76 0.422,-0.76ZM0.545,-0.363C0.545,-0.252 0.518,-0.162 0.422,-0.162L0.323,-0.162L0.323,-0.598L0.422,-0.598C0.518,-0.598 0.545,-0.506 0.545,-0.396L0.545,-0.363Z" style="fill-rule:nonzero;"></path> </g> <g transform="matrix(50,0,0,50,84.5379,24.9)"> <path d="M0.676,-0.332C0.676,-0.526 0.605,-0.682 0.343,-0.682C0.082,-0.682 0.011,-0.526 0.011,-0.332C0.011,-0.139 0.082,0.018 0.343,0.018C0.605,0.018 0.676,-0.139 0.676,-0.332ZM0.343,-0.511C0.428,-0.511 0.451,-0.431 0.451,-0.332C0.451,-0.233 0.428,-0.152 0.343,-0.152C0.258,-0.152 0.235,-0.233 0.235,-0.332C0.235,-0.431 0.258,-0.511 0.343,-0.511Z" style="fill-rule:nonzero;"></path> </g> <g transform="matrix(50,0,0,50,117.838,24.9)"> <path d="M0.774,-0.157C0.721,-0.157 0.706,-0.179 0.706,-0.253L0.706,-0.653L0.677,-0.668L0.433,-0.649C0.433,-0.649 0.43,-0.506 0.433,-0.506C0.442,-0.506 0.449,-0.506 0.456,-0.505C0.486,-0.499 0.505,-0.472 0.505,-0.332C0.505,-0.233 0.481,-0.152 0.394,-0.152C0.306,-0.152 0.282,-0.233 0.282,-0.332L0.282,-0.653L0.253,-0.668L0.012,-0.649C0.012,-0.649 0.01,-0.506 0.012,-0.506C0.065,-0.506 0.076,-0.485 0.076,-0.41C0.076,-0.263 0.019,0.018 0.295,0.018C0.493,0.018 0.509,-0.157 0.509,-0.191L0.52,-0.191L0.521,0.005L0.774,0.005C0.774,0.005 0.778,-0.157 0.774,-0.157Z" style="fill-rule:nonzero;"></path> </g> <g transform="matrix(50,0,0,50,156.188,24.9)"> <path d="M0.492,-0.016C0.4,-0.016 0.266,0.024 0.188,0.024C0.089,0.024 0.095,-0.059 0.164,-0.091C0.209,-0.068 0.266,-0.055 0.341,-0.055C0.584,-0.055 0.649,-0.193 0.649,-0.365C0.649,-0.48 0.619,-0.581 0.524,-0.634C0.535,-0.643 0.55,-0.648 0.568,-0.648C0.608,-0.648 0.63,-0.622 0.64,-0.578L0.722,-0.578L0.722,-0.803L0.671,-0.803C0.527,-0.803 0.505,-0.697 0.502,-0.646C0.46,-0.663 0.407,-0.672 0.341,-0.672C0.097,-0.672 0.031,-0.534 0.031,-0.364C0.031,-0.269 0.052,-0.184 0.113,-0.127C-0.041,-0.059 -0.059,0.232 0.192,0.232C0.277,0.232 0.4,0.198 0.488,0.198C0.558,0.198 0.57,0.209 0.57,0.218C0.57,0.223 0.569,0.227 0.566,0.23L0.707,0.23C0.715,0.211 0.722,0.186 0.722,0.157C0.722,0.043 0.62,-0.016 0.492,-0.016L0.492,-0.016ZM0.343,-0.522C0.419,-0.522 0.439,-0.451 0.439,-0.364C0.439,-0.277 0.419,-0.206 0.343,-0.206C0.268,-0.206 0.247,-0.277 0.247,-0.364C0.247,-0.451 0.268,-0.522 0.343,-0.522L0.343,-0.522Z" style="fill-rule:nonzero;"></path> </g> <g transform="matrix(50,0,0,50,205.538,24.9)"> <path d="M0.946,-0.596C0.949,-0.596 0.946,-0.76 0.946,-0.76L0.64,-0.76L0.496,-0.374L0.37,-0.76L0.029,-0.76C0.029,-0.76 0.024,-0.596 0.029,-0.596C0.082,-0.596 0.097,-0.575 0.097,-0.502L0.097,-0.258C0.097,-0.183 0.082,-0.162 0.029,-0.162C0.024,-0.162 0.029,-0 0.029,-0L0.289,-0C0.289,-0 0.294,-0.162 0.289,-0.162C0.236,-0.162 0.221,-0.183 0.221,-0.258L0.221,-0.438L0.397,-0L0.476,-0C0.476,-0 0.586,-0.272 0.653,-0.437L0.653,-0.258C0.653,-0.183 0.637,-0.162 0.584,-0.162C0.581,-0.162 0.584,-0 0.584,-0L0.946,-0C0.946,-0 0.949,-0.162 0.946,-0.162C0.893,-0.162 0.877,-0.183 0.877,-0.258L0.877,-0.502C0.877,-0.575 0.893,-0.596 0.946,-0.596Z" style="fill-rule:nonzero;"></path> </g> <g transform="matrix(40.7943,0,0,40.7943,253.238,24.9)"> <path d="M0.508,-0.234C0.502,-0.217 0.481,-0.156 0.382,-0.156C0.269,-0.156 0.238,-0.236 0.238,-0.336C0.238,-0.434 0.26,-0.515 0.344,-0.515C0.428,-0.515 0.45,-0.434 0.45,-0.336L0.666,-0.335L0.666,-0.655L0.637,-0.672L0.461,-0.657L0.461,-0.478L0.451,-0.478C0.451,-0.478 0.481,-0.685 0.264,-0.685C0.127,-0.685 0.011,-0.57 0.011,-0.336C0.011,-0.143 0.082,0.014 0.344,0.014C0.571,0.014 0.643,-0.1 0.67,-0.234C0.67,-0.234 0.51,-0.238 0.508,-0.234Z" style="fill-rule:nonzero;"></path> </g> <g transform="matrix(50,0,0,50,280.162,24.9)"> <path d="M0.8,-0.157C0.748,-0.157 0.726,-0.179 0.706,-0.253C0.706,-0.253 0.586,-0.68 0.564,-0.756L0.152,-0.756C0.152,-0.756 0.149,-0.594 0.152,-0.594C0.205,-0.594 0.214,-0.572 0.193,-0.498L0.125,-0.253C0.104,-0.179 0.082,-0.157 0.029,-0.157C0.025,-0.157 0.029,0.005 0.029,0.005L0.313,0.005C0.313,0.005 0.318,-0.157 0.313,-0.157C0.26,-0.157 0.251,-0.179 0.272,-0.253C0.272,-0.253 0.274,-0.257 0.275,-0.263L0.478,-0.263L0.48,-0.253C0.502,-0.179 0.492,-0.157 0.439,-0.157C0.436,-0.157 0.439,0.005 0.439,0.005L0.8,0.005C0.8,0.005 0.804,-0.157 0.8,-0.157ZM0.3,-0.352C0.314,-0.402 0.331,-0.461 0.341,-0.498C0.352,-0.534 0.362,-0.574 0.377,-0.574C0.39,-0.574 0.402,-0.534 0.412,-0.498L0.452,-0.352L0.3,-0.352Z" style="fill-rule:nonzero;"></path> </g> <g transform="matrix(50,0,0,50,320.612,24.9)"> <path d="M0.293,-0.478L0.282,-0.478L0.282,-0.656L0.253,-0.672L0.028,-0.653C0.028,-0.653 0.025,-0.51 0.029,-0.51C0.082,-0.51 0.097,-0.488 0.097,-0.414L0.097,-0.258C0.097,-0.183 0.082,-0.162 0.029,-0.162C0.025,-0.162 0.029,-0 0.029,-0L0.368,-0C0.368,-0 0.372,-0.162 0.368,-0.162C0.361,-0.162 0.353,-0.162 0.347,-0.163C0.316,-0.169 0.296,-0.197 0.296,-0.337C0.296,-0.434 0.316,-0.508 0.388,-0.508C0.436,-0.508 0.46,-0.476 0.47,-0.427L0.565,-0.427L0.565,-0.685L0.506,-0.685C0.31,-0.685 0.293,-0.511 0.293,-0.478Z" style="fill-rule:nonzero;"></path> </g> <g transform="matrix(50,0,0,50,349.362,24.9)"> <path d="M0.337,-0.16C0.288,-0.16 0.275,-0.198 0.275,-0.263L0.275,-0.414C0.275,-0.488 0.289,-0.51 0.352,-0.51L0.407,-0.51C0.41,-0.51 0.407,-0.653 0.407,-0.653L0.275,-0.653L0.275,-0.838L0.205,-0.877C0.205,-0.877 0.169,-0.653 0.002,-0.653C0.002,-0.653 -0.001,-0.51 0.002,-0.51C0.055,-0.51 0.066,-0.488 0.066,-0.414C0.066,-0.266 0.008,0.014 0.266,0.014C0.38,0.014 0.449,-0.072 0.454,-0.182L0.396,-0.203C0.396,-0.203 0.385,-0.16 0.337,-0.16Z" style="fill-rule:nonzero;"></path> </g> <g transform="matrix(50,0,0,50,370.762,24.9)"> <path d="M0.79,-0.162C0.736,-0.162 0.726,-0.183 0.726,-0.258C0.726,-0.404 0.782,-0.685 0.506,-0.685C0.308,-0.685 0.293,-0.511 0.293,-0.478L0.282,-0.478L0.3,-0.886L0.271,-0.901L0.028,-0.882C0.028,-0.882 0.025,-0.739 0.028,-0.739C0.082,-0.739 0.096,-0.718 0.096,-0.643L0.096,-0.258C0.096,-0.183 0.082,-0.162 0.028,-0.162C0.025,-0.162 0.028,-0 0.028,-0L0.368,-0C0.368,-0 0.372,-0.162 0.368,-0.162C0.36,-0.162 0.353,-0.162 0.347,-0.163C0.316,-0.169 0.296,-0.191 0.296,-0.337C0.296,-0.434 0.32,-0.515 0.408,-0.515C0.496,-0.515 0.52,-0.434 0.52,-0.337C0.52,-0.188 0.517,-0.162 0.449,-0.162C0.445,-0.162 0.449,-0 0.449,-0L0.79,-0C0.79,-0 0.793,-0.162 0.79,-0.162Z" style="fill-rule:nonzero;"></path> </g> <g transform="matrix(50,0,0,50,409.162,24.9)"> <path d="M0.774,-0.157C0.721,-0.157 0.706,-0.179 0.706,-0.253L0.706,-0.653L0.677,-0.668L0.433,-0.649C0.433,-0.649 0.43,-0.506 0.433,-0.506C0.442,-0.506 0.449,-0.506 0.456,-0.505C0.486,-0.499 0.505,-0.472 0.505,-0.332C0.505,-0.233 0.481,-0.152 0.394,-0.152C0.306,-0.152 0.282,-0.233 0.282,-0.332L0.282,-0.653L0.253,-0.668L0.012,-0.649C0.012,-0.649 0.01,-0.506 0.012,-0.506C0.065,-0.506 0.076,-0.485 0.076,-0.41C0.076,-0.263 0.019,0.018 0.295,0.018C0.493,0.018 0.509,-0.157 0.509,-0.191L0.52,-0.191L0.521,0.005L0.774,0.005C0.774,0.005 0.778,-0.157 0.774,-0.157Z" style="fill-rule:nonzero;"></path> </g> <g transform="matrix(50,0,0,50,448.312,24.9)"> <path d="M0.293,-0.478L0.282,-0.478L0.282,-0.656L0.253,-0.672L0.028,-0.653C0.028,-0.653 0.025,-0.51 0.029,-0.51C0.082,-0.51 0.097,-0.488 0.097,-0.414L0.097,-0.258C0.097,-0.183 0.082,-0.162 0.029,-0.162C0.025,-0.162 0.029,-0 0.029,-0L0.368,-0C0.368,-0 0.372,-0.162 0.368,-0.162C0.361,-0.162 0.353,-0.162 0.347,-0.163C0.316,-0.169 0.296,-0.197 0.296,-0.337C0.296,-0.434 0.316,-0.508 0.388,-0.508C0.436,-0.508 0.46,-0.476 0.47,-0.427L0.565,-0.427L0.565,-0.685L0.506,-0.685C0.31,-0.685 0.293,-0.511 0.293,-0.478Z" style="fill-rule:nonzero;"></path> </g> </g> </svg>
